<?xml version="1.0" encoding="utf-8"?>
<!-- Generator: Adobe Illustrator 23.0.6, SVG Export Plug-In . SVG Version: 6.00 Build 0)  -->
<svg version="1.1" id="Layer_4" xmlns="http://www.w3.org/2000/svg" xmlns:xlink="http://www.w3.org/1999/xlink" x="0px" y="0px"
	 viewBox="0 0 68.4 84" style="enable-background:new 0 0 68.4 84;" xml:space="preserve">
<style type="text/css">
	.st0{fill:none;stroke:url(#SVGID_1_);stroke-width:2;stroke-miterlimit:10;}
	.st1{fill:none;stroke:url(#SVGID_2_);stroke-width:1.6;stroke-miterlimit:10;}
</style>
<linearGradient id="SVGID_1_" gradientUnits="userSpaceOnUse" x1="16.249" y1="78.2672" x2="16.249" y2="78.2672">
	<stop  offset="0" style="stop-color:#fff"/>
	<stop  offset="1" style="stop-color:#fff"/>
</linearGradient>
<path class="st0" d="M16.2,78.3"/>
<linearGradient id="SVGID_2_" gradientUnits="userSpaceOnUse" x1="2.7516" y1="41.3647" x2="65.6484" y2="41.3647">
	<stop  offset="0" style="stop-color:#fff"/>
	<stop  offset="1" style="stop-color:#fff"/>
</linearGradient>
<path class="st1" d="M10.6,77.3c1.9-8-3.4-16.7-4.8-20.4c-1.3-3.8-1.4-5-1.2-7.8c0.3-3.4,0.9-6.9,2.4-9.9c1.1-2.2,3.5-5.9,6.7-8.5
	c0.6-0.5,1.1-1.1,1.6-1.7l0,0c0.1-0.2,0.3-0.3,0.3-0.5c0.8-1,2.6-5.4,2.7-6.5c0-0.3,0-0.8-0.1-1.1c-0.6-1.6-0.6-3.5-0.4-5.1
	c0.1-1,0.3-4.3,2.2-6.5c1-1.2,2.4-2.1,4-2.6c1.6-0.7,3.5-0.9,5.4-0.9c1.2,0,6.8,0.7,10,4.3c1,1,2.1,2.3,2.2,3.8c0,0.3,0,0.8-0.2,1.1
	c-0.3,0.4-0.6,0.6-0.6,0.6c0-0.1-0.4,4.1-0.4,4.3c-0.1,0.3-0.3,0.7-0.4,1c-0.2,0.3-0.6,0.6-0.7,0.9c0.3,1,0.3,1.6,0.3,1.8
	c0,0.3,0,0.7,0,1c0,0.4,0,0.8,0,1.2c0,0.7-0.3,1.2-1.2,1.1c-0.3,0-0.5-0.1-0.8-0.1c0,0,0,0-0.1,0c0,0.2-0.1,0.3-0.2,0.3
	c-0.3,0.3-0.3,0.6-0.3,1c0,0.2-0.1,0.3-0.2,0.3c-0.1,0-0.2,0.1-0.3,0.1c0,0.1,0.1,0.3,0.1,0.4c0,0.1,0,0.2-0.2,0.3
	c-0.1,0-0.4,0.3-0.5,0.4c-0.1,0.1-0.1,0.1-0.1,0.2C35.8,30,36,31,35.7,31.3c-0.2,0.2-0.5,0.4-0.9,0.7c-0.6,0.3-1,0.3-1.5,0.3
	c-0.8-0.1-3.4-1.5-3.9-1.7c-0.2,0.8-0.4,1.6-0.6,2.2c-0.1,0.3-0.1,0.5-0.2,0.8c0,0.3,0,0.6-0.1,0.9c0.3,0.2,0.6,0.4,0.9,0.7
	c0.9,0.3,1.6,0.8,2.3,1.2c1.4,0.9,2.6,1.9,3.6,3.2c0.8,1,1.6,2.3,2.1,3.8c0.3,0.2,3.7,0.9,6.5,3.5c3.5,3.4,4.1,6.7,4.3,8.9
	c0.2-3.7,2.6-6.5,4.7-9.4c0.1-0.2,1.5-2.3,1.6-2.5c1.6-3.2,2-6.4,1.6-6.8c-0.4-0.4-0.9-2-1-2.4c-0.1-0.5-1.5-3.1-1.5-3.1
	s0.4-1.8,1.3-2.2l1,0.6c0,0-0.1-2.9,2.4-2c2.5,0.9,4.7,1.6,5,2.5c0.3,0.9,0.3,3.6,0.3,3.6s-1.7,6.5-2.1,11.8l0,0
	c-0.2,3.2-0.4,7.2-1.2,12.6C60,62,56.7,69.1,55.9,70c-1.2,1.2-1.1,1.5-2.9,1.7c-0.4,0.1-1.8,0.8-2.3,0.6c-3.5-1.1-8.7-3.1-10.8-4.3
	c-0.9-0.5-1.6-1-2.2-1.5c-1.2-0.9-1.8-1.5-1.8-1.5c-0.3,1-1,1.9-1.6,2.6c-0.1,0.1-0.2,0.3-0.3,0.3v0.1c0.5,1,0.3,2.4,0.1,3.3
	c-0.2,0.7-0.5,1.4-1,2c0,0.5,0,1.1,0.1,1.6c0.2,1.1,0,2.2-0.3,3.3"/>
</svg>
