<?xml version="1.0" encoding="utf-8"?>
<!-- Generator: Adobe Illustrator 23.0.6, SVG Export Plug-In . SVG Version: 6.00 Build 0)  -->
<svg version="1.1" id="Layer_4" xmlns="http://www.w3.org/2000/svg" xmlns:xlink="http://www.w3.org/1999/xlink" x="0px" y="0px"
	 viewBox="0 0 56 83.5" style="enable-background:new 0 0 56 83.5;" xml:space="preserve">
<style type="text/css">
	.st0{fill:none;stroke:url(#SVGID_1_);stroke-width:1.6;stroke-miterlimit:10;}
</style>
<linearGradient id="SVGID_1_" gradientUnits="userSpaceOnUse" x1="3.9311" y1="42.2873" x2="52.248" y2="42.2873">
	<stop  offset="0" style="stop-color:#fff"/>
	<stop  offset="1" style="stop-color:#fff"/>
</linearGradient>
<path class="st0" d="M38.7,76.9c-0.2-0.5-0.6-1.1-0.9-1.6c0.3-0.1,9.9-6.3,11.2-7.9c0.4-0.5,0.5-0.5,1-1.3c0.2-0.2,0.5-0.5,0.7-0.7
	c0.1-0.2,0.2-0.2,0.3-0.4c0.7-1-2.4-9.4-2.7-11.4c-0.1-1.1-0.2-2.1-0.5-3.1c-0.7-2.5-2.1-5.3-2.2-6.5c0-1.3-0.2-2.9-0.3-3.7
	c-0.2-0.6-0.7-1.7-1.6-2.8c-0.1-0.2-2.4-2.5-3.1-3.4c-1.2-1.6-1.9-3.4-2.3-5.4c-0.2-1.1-0.4-2.6-0.1-3.9c0.9-1.1,1.7-2.2,2.5-3.3
	c0.2-0.4,0.6-0.8,0.8-1.2c0.4-0.6,0.7-1.2,1.1-2v-0.1c0,1.1-0.2,2.2-0.4,3.3c-0.6,2.5-1.5,5-1.5,7.6c0.1,6.8,6.8,8.1,6.8,8.1
	C43.3,33,46.7,26.8,47,21.9c0.2-2.3-0.2-4.9-1.1-7.1c-0.7-1.6-1.7-3.7-3.4-4.6c-0.1-0.1-0.2-0.2-0.2-0.2c-0.7-0.7-1.9-1-2.7-0.3
	c-0.2,0.1-0.2,0.2-0.3,0.4c-0.6,0-1.3-0.7-2.1-1c-1-0.3-2-0.4-2.9-0.7c-1.1-0.1-2.3,0-3.4,0.2c-0.4,0.1-0.7,0.2-1.1,0.2
	C29.3,9,28.9,9,28.5,9.2c-0.3,0.1-1.7,0.6-3,1.8c-0.2,0.2-0.4,0.5-0.6,0.9c0-0.1-0.3,0.7-0.3,1.1l0,0c0,0.1,0,0.1,0,0.2
	c0,0.2-0.1,0.4,0.1,0.7c0,0-0.2,0.2-0.2,0.3s-0.2,0.3-0.2,0.4c0,0,0,0.1-0.1,0.1c-0.2,0.3-0.3,0.7-0.5,1.1c-0.2,0-0.4,0.5-0.4,0.6
	c-0.1,0.2-0.2,0.5-0.3,0.8c0,0.1-0.1,0.1-0.1,0.2l0,0l0,0v0.1c-0.2,0.4-0.2,1.1,0,1.7c0,0.2,0,0.2-0.1,0.4c-0.4,0.6-1.1,1.1-1.6,1.5
	c-0.1,0.1-0.2,0.1-0.2,0.2l-0.1,0.1l-0.1,0.1c-0.2,0.1-0.2,0.3-0.2,0.5c0,0.2,0.1,0.5,0.3,0.7l0,0c0.1,0.2,0.2,0.2,0.4,0.3
	c0.1,0.1,0.2,0.2,0.3,0.2c0.1,0.1,0.1,0.1,0.2,0.2c0.1,0.1,0.2,0.2,0.2,0.4c0,0.1,0,0.1,0,0.2c-0.1,0.2-0.2,0.3-0.2,0.5
	s-0.2,0.2-0.2,0.3c0,0.2,0.1,0.3,0.2,0.5c0,0.1,0.1,0.1,0.1,0.2c0.1,0.1,0.1,0.1,0.2,0.2c-0.2,0.1-0.2,0.2-0.2,0.3
	c-0.1,0.2,0,0.4,0.1,0.6l0,0c0.1,0,0.2,0.1,0.2,0.2c0.1,0.1,0.1,0.1,0.2,0.2c0.4,0.6-0.4,1.6,0.3,2.1c0.2,0.2,0.6,0.4,0.9,0.6
	c0.2,0.1,0.5,0.1,0.7,0.1c0.1,0,0.1,0,0.2,0c0.2,0,0.4,0,0.6,0l0,0h0.1c0.1,0,0.2,0,0.2-0.1c0.2-0.1,0.5-0.1,0.8-0.2
	c0.2,0,0.2-0.1,0.4-0.1c0.1,0,0.2-0.1,0.3-0.1l0,0c0.3-0.1,0.6-0.1,0.9-0.2c0.1,0,0.2,0,0.3,0c0.3,0,0.7,0.1,1.1,0.2
	c0.5,1,1.1,2.5,1.5,3.5c-0.2,0.8-0.7,1.1-1.3,1.7c-0.7,0.7-1.5,1.1-2.1,1.8c-0.2,0.2-0.3,0.4-0.4,0.6c-0.1,0.2-0.2,0.2-0.4,0.3
	c-0.7,0.3-1.2,0.7-1.9,1c-2.3,1.2-4.3,2.1-6.4,3.6c-1.6,1.1-3.2,3.2-3.5,5.2c-0.2,1.8,0.5,3.7,1.7,4.4c0,0.3,0,0.5,0,0.6
	c-0.7,0.5-0.7,0.3-2.5,2.4c-0.1-0.6-1.1-2.5-1.9-4.3c-0.4-0.9-1.8-4-2.6-7.8c-0.2-1.6,0.2-1.6,0.5-1.8c0.3-0.2,0.8-1.1,1-1.5
	c0.2-0.3,1.4-1.8,1.4-1.8s0-1.2-0.5-1.6l-0.8,0.3c0,0,0.5-1.9-1.2-1.6S6.5,34.5,6.1,35s-0.7,2.3-0.7,2.3S4.9,40.6,5.3,42l0,0
	c1,9.4,3.7,21.3,4.4,21.7c0.6,0.2,2,0,2.5-0.2c0.4-0.1,4.2-2.3,4.3-2.3c0.1,0.6,0.1,3.9,0.5,8.1c0.2,3,1.4,5.8,2.2,7.7 M30.9,59.1
	c0.2-0.5,0.6-0.9,1-1.4c1.2-1.4,2.5-3.3,3.7-4.6c0.7-0.7,1.5-1.5,2-2.4c0,0,0.4,1.3,2.9,5.7c1.5,2.6,3.5,4.4,4.1,6.8
	c-3.4,2.1-6.1,6.7-9,9.1c-0.6-0.7-1.1-1.2-1.8-1.7c-1.5-1-3.3-3.4-3.4-4.4C30,63.3,30.4,60.1,30.9,59.1z"/>
</svg>
